<svg width="397" height="80" viewBox="0 0 397 80" fill="none" xmlns="http://www.w3.org/2000/svg">
<path d="M78.9152 5.62061C79.9862 6.73714 80.8236 8.08724 81.4274 9.6709C82.0313 11.2432 82.3332 12.9863 82.3332 14.9004C82.3332 16.8258 82.0256 18.5747 81.4104 20.147C80.7951 21.7192 79.9406 23.0579 78.8469 24.1631C77.7873 25.2568 76.5568 26.0999 75.1555 26.6924C73.7541 27.2848 72.2616 27.5811 70.6779 27.5811C68.9917 27.5811 67.4309 27.2677 65.9953 26.6411C64.5712 26.0031 63.3464 25.1201 62.321 23.9922C61.2956 22.887 60.4867 21.5483 59.8942 19.9761C59.3132 18.3924 59.0227 16.7005 59.0227 14.9004C59.0227 12.9294 59.3303 11.1748 59.9455 9.63672C60.5607 8.08724 61.4095 6.74854 62.4919 5.62061C63.5629 4.50407 64.8047 3.64958 66.2175 3.05713C67.6416 2.46468 69.1285 2.16846 70.6779 2.16846C72.2844 2.16846 73.7997 2.47038 75.2238 3.07422C76.648 3.67806 77.8785 4.52686 78.9152 5.62061ZM76.3689 22.813C77.0069 21.7762 77.4683 20.6027 77.7531 19.2925C78.0494 17.9823 78.1975 16.5182 78.1975 14.9004C78.1975 13.237 78.0323 11.7103 77.7019 10.3203C77.3828 8.93034 76.91 7.74544 76.2834 6.76562C75.6568 5.7972 74.8706 5.04525 73.925 4.50977C72.9794 3.96289 71.897 3.68945 70.6779 3.68945C69.3107 3.68945 68.1486 4.00277 67.1916 4.62939C66.2346 5.25602 65.4541 6.09342 64.8503 7.1416C64.2806 8.14421 63.8534 9.31771 63.5686 10.6621C63.2951 12.0065 63.1584 13.4193 63.1584 14.9004C63.1584 16.541 63.3065 18.0221 63.6027 19.3438C63.899 20.6654 64.3661 21.8389 65.0041 22.8643C65.6193 23.8669 66.3941 24.653 67.3283 25.2227C68.2626 25.7809 69.3791 26.0601 70.6779 26.0601C71.897 26.0601 72.9965 25.7752 73.9763 25.2056C74.9561 24.6359 75.7536 23.8384 76.3689 22.813ZM105.095 26.6924L99.609 27.0684L99.3526 26.8291V24.6929H99.2501C98.9767 24.9777 98.669 25.2853 98.3272 25.6157C97.9855 25.9347 97.5924 26.2253 97.148 26.4873C96.6354 26.7949 96.1397 27.0285 95.6612 27.188C95.1827 27.3475 94.5048 27.4272 93.6275 27.4272C92.135 27.4272 90.9957 26.943 90.2096 25.9746C89.4348 24.9948 89.0475 23.5763 89.0475 21.7192V13.6528C89.0475 13.2427 88.9677 12.9009 88.8082 12.6274C88.6601 12.3426 88.4379 12.0977 88.1417 11.8926C87.9366 11.7559 87.6803 11.659 87.3727 11.6021C87.065 11.5337 86.7403 11.4881 86.3985 11.4653V10.3545L92.0211 9.94434L92.2774 10.1836V21.8901C92.2774 23.1092 92.5509 24.0264 93.0978 24.6416C93.6446 25.2568 94.2997 25.5645 95.0631 25.5645C95.6897 25.5645 96.248 25.4676 96.7379 25.2739C97.2278 25.0802 97.638 24.8524 97.9684 24.5903C98.276 24.3511 98.5437 24.1004 98.7716 23.8384C99.0108 23.5649 99.1931 23.3143 99.3185 23.0864V13.5332C99.3185 13.1572 99.2387 12.8268 99.0792 12.542C98.9197 12.2458 98.6975 11.9951 98.4127 11.79C98.2076 11.6533 97.9 11.5736 97.4898 11.5508C97.0911 11.5166 96.641 11.4881 96.1397 11.4653V10.3545L102.258 9.94434L102.514 10.1836V23.5649C102.514 23.9523 102.594 24.2827 102.754 24.5562C102.913 24.8296 103.135 25.0632 103.42 25.2568C103.625 25.3822 103.87 25.4676 104.155 25.5132C104.44 25.5474 104.753 25.5701 105.095 25.5815V26.6924ZM122.166 12.3198C122.166 12.9009 122.023 13.4193 121.738 13.875C121.453 14.3193 121.015 14.5415 120.422 14.5415C119.784 14.5415 119.294 14.3763 118.953 14.0459C118.622 13.7155 118.457 13.3509 118.457 12.9521C118.457 12.7015 118.474 12.4736 118.508 12.2686C118.554 12.0635 118.594 11.8584 118.628 11.6533C118.092 11.6533 117.466 11.8698 116.748 12.3027C116.03 12.7357 115.421 13.3509 114.919 14.1484V23.958C114.919 24.3568 114.993 24.6815 115.142 24.9321C115.301 25.1828 115.546 25.3708 115.876 25.4961C116.161 25.61 116.526 25.6955 116.97 25.7524C117.426 25.8094 117.819 25.8493 118.149 25.8721V27H109.263V25.8721C109.525 25.8493 109.792 25.8265 110.066 25.8037C110.351 25.7809 110.596 25.7354 110.801 25.667C111.12 25.5645 111.353 25.3879 111.501 25.1372C111.661 24.8752 111.741 24.5391 111.741 24.1289V13.7212C111.741 13.368 111.655 13.0205 111.484 12.6787C111.325 12.3369 111.097 12.0635 110.801 11.8584C110.584 11.7217 110.328 11.6248 110.032 11.5679C109.736 11.4995 109.417 11.4539 109.075 11.4312V10.3203L114.68 9.94434L114.919 10.1836V12.5591H115.005C115.711 11.6362 116.497 10.9355 117.363 10.457C118.229 9.97852 119.021 9.73926 119.739 9.73926C120.457 9.73926 121.038 9.97282 121.482 10.4399C121.938 10.9071 122.166 11.5337 122.166 12.3198ZM148.805 2.57861C148.805 3.09131 148.668 3.52425 148.394 3.87744C148.121 4.23063 147.705 4.40723 147.147 4.40723C146.794 4.40723 146.48 4.33317 146.207 4.18506C145.945 4.03695 145.7 3.83757 145.472 3.58691C145.244 3.33626 145.033 3.05143 144.84 2.73242C144.646 2.41341 144.481 2.15706 144.344 1.96338C143.581 1.99756 142.988 2.53304 142.567 3.56982C142.157 4.59521 141.951 6.23584 141.951 8.4917V10.2178H146.292V11.8584H141.951V23.958C141.951 24.3568 142.026 24.6815 142.174 24.9321C142.333 25.1828 142.578 25.3708 142.909 25.4961C143.182 25.5986 143.547 25.6841 144.002 25.7524C144.458 25.8094 144.851 25.8493 145.181 25.8721V27H136.295V25.8721C136.557 25.8493 136.825 25.8265 137.098 25.8037C137.383 25.7809 137.628 25.7354 137.833 25.667C138.152 25.5645 138.385 25.3879 138.534 25.1372C138.693 24.8752 138.773 24.5391 138.773 24.1289V11.8584H135.44V10.2178H138.773V9.14111C138.773 6.57764 139.434 4.50407 140.755 2.92041C142.088 1.32536 143.752 0.527832 145.745 0.527832C146.759 0.527832 147.523 0.727214 148.035 1.12598C148.548 1.52474 148.805 2.00895 148.805 2.57861ZM162.645 12.3198C162.645 12.9009 162.503 13.4193 162.218 13.875C161.933 14.3193 161.495 14.5415 160.902 14.5415C160.264 14.5415 159.774 14.3763 159.432 14.0459C159.102 13.7155 158.937 13.3509 158.937 12.9521C158.937 12.7015 158.954 12.4736 158.988 12.2686C159.034 12.0635 159.073 11.8584 159.108 11.6533C158.572 11.6533 157.946 11.8698 157.228 12.3027C156.51 12.7357 155.9 13.3509 155.399 14.1484V23.958C155.399 24.3568 155.473 24.6815 155.621 24.9321C155.781 25.1828 156.026 25.3708 156.356 25.4961C156.641 25.61 157.006 25.6955 157.45 25.7524C157.906 25.8094 158.299 25.8493 158.629 25.8721V27H149.742V25.8721C150.004 25.8493 150.272 25.8265 150.546 25.8037C150.83 25.7809 151.075 25.7354 151.28 25.667C151.599 25.5645 151.833 25.3879 151.981 25.1372C152.141 24.8752 152.22 24.5391 152.22 24.1289V13.7212C152.22 13.368 152.135 13.0205 151.964 12.6787C151.805 12.3369 151.577 12.0635 151.28 11.8584C151.064 11.7217 150.808 11.6248 150.511 11.5679C150.215 11.4995 149.896 11.4539 149.554 11.4312V10.3203L155.16 9.94434L155.399 10.1836V12.5591H155.485C156.191 11.6362 156.977 10.9355 157.843 10.457C158.709 9.97852 159.501 9.73926 160.218 9.73926C160.936 9.73926 161.517 9.97282 161.962 10.4399C162.417 10.9071 162.645 11.5337 162.645 12.3198ZM174.384 27H166.232V25.8721C166.494 25.8493 166.762 25.8265 167.035 25.8037C167.32 25.7809 167.565 25.7354 167.77 25.667C168.089 25.5645 168.323 25.3879 168.471 25.1372C168.63 24.8752 168.71 24.5391 168.71 24.1289V13.7212C168.71 13.3566 168.625 13.0262 168.454 12.73C168.294 12.4224 168.066 12.166 167.77 11.9609C167.554 11.8242 167.24 11.7103 166.83 11.6191C166.42 11.5166 166.044 11.4539 165.702 11.4312V10.3203L171.65 9.94434L171.889 10.1836V23.9238C171.889 24.3226 171.963 24.653 172.111 24.915C172.27 25.1771 172.515 25.3708 172.846 25.4961C173.096 25.5986 173.341 25.6841 173.581 25.7524C173.82 25.8094 174.088 25.8493 174.384 25.8721V27ZM172.231 3.29639C172.231 3.9458 172.014 4.51546 171.581 5.00537C171.16 5.48389 170.636 5.72314 170.009 5.72314C169.428 5.72314 168.921 5.49528 168.488 5.03955C168.066 4.57243 167.856 4.04264 167.856 3.4502C167.856 2.82357 168.066 2.27669 168.488 1.80957C168.921 1.34245 169.428 1.10889 170.009 1.10889C170.658 1.10889 171.188 1.33105 171.598 1.77539C172.02 2.20833 172.231 2.71533 172.231 3.29639ZM193.522 23.0352C192.816 24.3796 191.87 25.4505 190.686 26.248C189.501 27.0456 188.139 27.4443 186.601 27.4443C185.245 27.4443 184.055 27.2051 183.029 26.7266C182.015 26.248 181.178 25.5986 180.517 24.7783C179.856 23.958 179.361 23.001 179.03 21.9072C178.711 20.8135 178.552 19.6571 178.552 18.438C178.552 17.3442 178.723 16.2733 179.064 15.2251C179.418 14.1655 179.93 13.2142 180.603 12.3711C181.252 11.5622 182.055 10.9128 183.012 10.4229C183.981 9.92155 185.063 9.6709 186.259 9.6709C187.49 9.6709 188.544 9.86458 189.421 10.252C190.298 10.6393 191.01 11.1691 191.557 11.8413C192.081 12.4793 192.469 13.2313 192.719 14.0972C192.981 14.9631 193.112 15.903 193.112 16.917V18.0449H181.953C181.953 19.1501 182.055 20.1527 182.26 21.0527C182.477 21.9528 182.813 22.7446 183.269 23.4282C183.713 24.089 184.294 24.6131 185.012 25.0005C185.729 25.3765 186.584 25.5645 187.575 25.5645C188.589 25.5645 189.461 25.3309 190.19 24.8638C190.931 24.3853 191.643 23.5308 192.326 22.3003L193.522 23.0352ZM189.746 16.6094C189.746 15.9714 189.689 15.2878 189.575 14.5586C189.472 13.8294 189.301 13.2199 189.062 12.73C188.8 12.2059 188.441 11.7786 187.985 11.4482C187.53 11.1178 186.943 10.9526 186.225 10.9526C185.029 10.9526 184.032 11.4539 183.234 12.4565C182.448 13.4478 182.021 14.832 181.953 16.6094H189.746ZM216.182 27H207.927V25.8721C208.189 25.8493 208.474 25.8265 208.782 25.8037C209.101 25.7809 209.363 25.7354 209.568 25.667C209.887 25.5645 210.12 25.3879 210.268 25.1372C210.428 24.8752 210.508 24.5391 210.508 24.1289V15.4644C210.508 14.2681 210.223 13.3452 209.653 12.6958C209.095 12.0464 208.411 11.7217 207.602 11.7217C206.999 11.7217 206.446 11.8185 205.945 12.0122C205.443 12.1945 204.999 12.4224 204.612 12.6958C204.236 12.9578 203.934 13.2427 203.706 13.5503C203.489 13.8465 203.33 14.0858 203.227 14.2681V23.958C203.227 24.3454 203.307 24.6644 203.467 24.915C203.626 25.1657 203.865 25.3594 204.184 25.4961C204.424 25.61 204.68 25.6955 204.954 25.7524C205.238 25.8094 205.529 25.8493 205.825 25.8721V27H197.571V25.8721C197.833 25.8493 198.1 25.8265 198.374 25.8037C198.659 25.7809 198.904 25.7354 199.109 25.667C199.428 25.5645 199.661 25.3879 199.809 25.1372C199.969 24.8752 200.049 24.5391 200.049 24.1289V13.7212C200.049 13.3338 199.963 12.9806 199.792 12.6616C199.633 12.3312 199.405 12.0635 199.109 11.8584C198.892 11.7217 198.636 11.6248 198.34 11.5679C198.044 11.4995 197.725 11.4539 197.383 11.4312V10.3203L202.988 9.94434L203.227 10.1836V12.5591H203.313C203.586 12.2856 203.928 11.9609 204.338 11.585C204.748 11.1976 205.136 10.8843 205.5 10.645C205.922 10.3716 206.423 10.1437 207.004 9.96143C207.585 9.77913 208.24 9.68799 208.97 9.68799C210.587 9.68799 211.784 10.195 212.559 11.209C213.345 12.2116 213.738 13.5503 213.738 15.2251V23.9922C213.738 24.391 213.806 24.7157 213.943 24.9663C214.079 25.2056 214.313 25.3936 214.643 25.5303C214.917 25.6442 215.15 25.724 215.344 25.7695C215.549 25.8151 215.828 25.8493 216.182 25.8721V27ZM238.806 26.6924L232.928 27.0684L232.671 26.8291V25.2568L232.534 25.2227C231.942 25.8835 231.207 26.4246 230.33 26.8462C229.464 27.2677 228.57 27.4785 227.647 27.4785C226.69 27.4785 225.761 27.2677 224.861 26.8462C223.972 26.4132 223.198 25.8094 222.537 25.0347C221.865 24.2485 221.329 23.3029 220.93 22.1978C220.543 21.0926 220.349 19.8735 220.349 18.5405C220.349 17.3215 220.56 16.165 220.982 15.0713C221.403 13.9775 221.984 13.0205 222.725 12.2002C223.42 11.4368 224.269 10.8273 225.271 10.3716C226.285 9.91585 227.316 9.68799 228.365 9.68799C229.151 9.68799 229.92 9.79053 230.672 9.99561C231.435 10.1893 232.09 10.4399 232.637 10.7476V4.88574C232.637 4.40723 232.557 3.97428 232.398 3.58691C232.238 3.18815 232.016 2.88623 231.731 2.68115C231.412 2.46468 230.979 2.31087 230.432 2.21973C229.897 2.11719 229.316 2.04313 228.689 1.99756V0.937988L235.576 0.544922L235.833 0.80127V23.5308C235.833 23.9295 235.907 24.2713 236.055 24.5562C236.214 24.8296 236.442 25.0632 236.739 25.2568C236.955 25.3936 237.268 25.479 237.679 25.5132C238.089 25.5474 238.465 25.5701 238.806 25.5815V26.6924ZM232.637 23.7358V13.875C232.546 13.5788 232.398 13.2598 232.193 12.918C231.988 12.5762 231.731 12.2629 231.424 11.978C231.093 11.6932 230.706 11.4596 230.262 11.2773C229.817 11.0837 229.299 10.9868 228.706 10.9868C228.023 10.9868 227.39 11.1634 226.809 11.5166C226.24 11.8698 225.733 12.3768 225.288 13.0376C224.867 13.6756 224.531 14.4902 224.28 15.4814C224.041 16.4613 223.921 17.5493 223.921 18.7456C223.921 19.7026 224.012 20.5742 224.195 21.3604C224.377 22.1351 224.685 22.8586 225.117 23.5308C225.516 24.1688 226.023 24.6815 226.638 25.0688C227.265 25.4562 228.006 25.6499 228.86 25.6499C229.772 25.6499 230.524 25.4505 231.116 25.0518C231.72 24.653 232.227 24.2144 232.637 23.7358ZM253.673 18.7456C254.14 19.1558 254.499 19.6286 254.749 20.1641C255 20.6995 255.125 21.3547 255.125 22.1294C255.125 23.6903 254.538 24.9663 253.365 25.9575C252.203 26.9487 250.693 27.4443 248.836 27.4443C247.856 27.4443 246.951 27.2677 246.119 26.9146C245.299 26.5614 244.712 26.2367 244.359 25.9404L244.017 27.0513H242.735L242.564 21.1895H243.743C243.835 21.6338 244.028 22.1522 244.324 22.7446C244.621 23.3371 244.98 23.8726 245.401 24.3511C245.845 24.8524 246.375 25.2739 246.99 25.6157C247.617 25.9575 248.318 26.1284 249.092 26.1284C250.186 26.1284 251.029 25.8835 251.622 25.3936C252.214 24.8923 252.51 24.1802 252.51 23.2573C252.51 22.7788 252.414 22.3687 252.22 22.0269C252.038 21.6737 251.764 21.366 251.4 21.104C251.024 20.842 250.562 20.6084 250.015 20.4033C249.468 20.1868 248.859 19.9761 248.187 19.771C247.651 19.6115 247.053 19.395 246.392 19.1216C245.743 18.8368 245.185 18.5063 244.717 18.1304C244.216 17.7316 243.806 17.2417 243.487 16.6606C243.168 16.0796 243.008 15.396 243.008 14.6099C243.008 13.2313 243.521 12.0635 244.547 11.1064C245.572 10.1494 246.945 9.6709 248.665 9.6709C249.326 9.6709 249.998 9.75635 250.682 9.92725C251.377 10.0981 251.941 10.3032 252.374 10.5425L252.767 9.65381H253.997L254.254 15.0713H253.074C252.835 13.8636 252.317 12.8838 251.519 12.1318C250.733 11.3685 249.77 10.9868 248.631 10.9868C247.697 10.9868 246.962 11.2204 246.426 11.6875C245.891 12.1546 245.623 12.7186 245.623 13.3794C245.623 13.8921 245.709 14.3193 245.88 14.6611C246.062 15.0029 246.33 15.2935 246.683 15.5327C247.025 15.7606 247.452 15.9771 247.965 16.1821C248.489 16.3758 249.132 16.598 249.896 16.8486C250.648 17.0879 251.354 17.367 252.015 17.686C252.687 18.005 253.24 18.3582 253.673 18.7456ZM295.436 11.2432C294.958 11.2887 294.439 11.4881 293.881 11.8413C293.334 12.1945 292.935 12.7243 292.685 13.4307C292.115 15.1055 291.574 16.6948 291.061 18.1987C290.56 19.6912 289.996 21.3717 289.369 23.2402C289.164 23.8327 288.953 24.4707 288.737 25.1543C288.532 25.8379 288.344 26.493 288.173 27.1196H286.703L282.174 14.7124L277.611 27.1196H276.21C275.355 24.5903 274.518 22.0838 273.698 19.6001C272.889 17.105 272.171 14.9346 271.544 13.0889C271.362 12.5534 271.015 12.1318 270.502 11.8242C269.989 11.5166 269.494 11.3343 269.015 11.2773V10.1494H276.535V11.3457C276.159 11.3571 275.749 11.4198 275.304 11.5337C274.871 11.6476 274.655 11.8356 274.655 12.0977C274.655 12.1432 274.672 12.2401 274.706 12.3882C274.752 12.5363 274.803 12.6958 274.86 12.8667C275.224 14.063 275.635 15.4017 276.09 16.8828C276.557 18.3525 277.156 20.2666 277.885 22.625L282.191 10.4912H283.832L288.224 22.4541C288.714 20.9274 289.198 19.452 289.677 18.0278C290.167 16.5923 290.594 15.2479 290.958 13.9946C291.038 13.6984 291.112 13.4307 291.181 13.1914C291.26 12.9408 291.3 12.6958 291.3 12.4565C291.3 12.2515 291.209 12.0692 291.027 11.9097C290.845 11.7502 290.622 11.6191 290.36 11.5166C290.132 11.4255 289.882 11.3571 289.608 11.3115C289.346 11.266 289.153 11.2432 289.027 11.2432V10.1494H295.436V11.2432ZM316.54 27H308.268V25.8721C308.531 25.8493 308.821 25.8265 309.14 25.8037C309.459 25.7809 309.721 25.7354 309.926 25.667C310.245 25.5645 310.479 25.3879 310.627 25.1372C310.786 24.8752 310.866 24.5391 310.866 24.1289V15.4644C310.866 14.2681 310.581 13.3452 310.012 12.6958C309.453 12.0464 308.77 11.7217 307.961 11.7217C307.368 11.7217 306.816 11.8185 306.303 12.0122C305.802 12.1945 305.352 12.4224 304.953 12.6958C304.566 12.9806 304.269 13.2655 304.064 13.5503C303.859 13.8351 303.7 14.0744 303.586 14.2681V23.958C303.586 24.3454 303.66 24.6644 303.808 24.915C303.968 25.1657 304.207 25.3594 304.526 25.4961C304.776 25.61 305.033 25.6955 305.295 25.7524C305.568 25.8094 305.864 25.8493 306.184 25.8721V27H297.912V25.8721C298.174 25.8493 298.447 25.8265 298.732 25.8037C299.017 25.7695 299.256 25.724 299.45 25.667C299.769 25.5645 300.008 25.3879 300.168 25.1372C300.327 24.8752 300.407 24.5391 300.407 24.1289V4.50977C300.407 4.1224 300.316 3.73503 300.134 3.34766C299.963 2.96029 299.735 2.66976 299.45 2.47607C299.245 2.32796 298.88 2.22542 298.356 2.16846C297.844 2.1001 297.428 2.05452 297.109 2.03174V0.937988L303.347 0.544922L303.586 0.80127V12.5591H303.654C304.03 12.1831 304.372 11.8527 304.68 11.5679C304.987 11.2716 305.392 10.964 305.893 10.645C306.326 10.3716 306.833 10.1437 307.414 9.96143C308.006 9.77913 308.667 9.68799 309.396 9.68799C310.9 9.68799 312.057 10.1665 312.866 11.1235C313.675 12.0692 314.079 13.4364 314.079 15.2251V23.9922C314.079 24.391 314.147 24.7157 314.284 24.9663C314.432 25.2056 314.671 25.3936 315.002 25.5303C315.264 25.6328 315.497 25.7126 315.703 25.7695C315.919 25.8151 316.198 25.8493 316.54 25.8721V27ZM337.131 18.4038C337.131 19.5887 336.943 20.7565 336.567 21.9072C336.191 23.0465 335.656 24.015 334.961 24.8125C334.175 25.724 333.263 26.4019 332.226 26.8462C331.19 27.2905 330.027 27.5127 328.74 27.5127C327.669 27.5127 326.649 27.3133 325.681 26.9146C324.713 26.5044 323.852 25.9119 323.1 25.1372C322.36 24.3739 321.767 23.4453 321.323 22.3516C320.89 21.2464 320.674 20.0103 320.674 18.6431C320.674 16.0112 321.437 13.8579 322.964 12.1831C324.502 10.5083 326.513 9.6709 328.996 9.6709C331.355 9.6709 333.297 10.4684 334.824 12.0635C336.362 13.6471 337.131 15.7606 337.131 18.4038ZM333.594 18.438C333.594 17.5835 333.508 16.6834 333.337 15.7378C333.166 14.7808 332.91 13.9718 332.568 13.311C332.204 12.6047 331.725 12.0407 331.133 11.6191C330.54 11.1862 329.817 10.9697 328.962 10.9697C328.085 10.9697 327.333 11.1862 326.706 11.6191C326.091 12.0521 325.59 12.6445 325.202 13.3965C324.838 14.0915 324.582 14.8833 324.433 15.772C324.285 16.6606 324.211 17.5208 324.211 18.3525C324.211 19.4463 324.297 20.4603 324.468 21.3945C324.65 22.3174 324.935 23.1434 325.322 23.8726C325.709 24.6017 326.194 25.1771 326.775 25.5986C327.367 26.0088 328.096 26.2139 328.962 26.2139C330.386 26.2139 331.514 25.5246 332.346 24.146C333.178 22.7674 333.594 20.8647 333.594 18.438ZM16.2721 71.6924C15.7366 71.8861 15.2638 72.0399 14.8536 72.1538C14.4548 72.2791 13.9991 72.3418 13.4864 72.3418C12.5977 72.3418 11.8857 72.1367 11.3502 71.7266C10.8261 71.305 10.49 70.6955 10.3419 69.8979H10.2393C9.49879 70.7183 8.70126 71.3449 7.84677 71.7778C7.00367 72.2108 5.98398 72.4272 4.78769 72.4272C3.52304 72.4272 2.48056 72.0399 1.66025 71.2651C0.851329 70.4904 0.446869 69.4764 0.446869 68.2231C0.446869 67.5737 0.538015 66.9927 0.720306 66.48C0.902598 65.9673 1.17604 65.5059 1.54062 65.0957C1.82545 64.7539 2.20143 64.452 2.66855 64.1899C3.13567 63.9165 3.57431 63.7 3.98447 63.5405C4.49716 63.3468 5.53395 62.988 7.09482 62.4639C8.66708 61.9398 9.72665 61.5296 10.2735 61.2334V59.5415C10.2735 59.3934 10.2393 59.1086 10.171 58.687C10.114 58.2655 9.983 57.8667 9.77792 57.4907C9.55006 57.0692 9.22535 56.7046 8.8038 56.397C8.39365 56.078 7.80689 55.9185 7.04355 55.9185C6.51946 55.9185 6.02955 56.0096 5.57382 56.1919C5.12949 56.3628 4.81617 56.5451 4.63388 56.7388C4.63388 56.9666 4.68515 57.3027 4.78769 57.7471C4.90162 58.1914 4.95859 58.6016 4.95859 58.9775C4.95859 59.3763 4.7763 59.7409 4.41171 60.0713C4.05852 60.4017 3.56292 60.5669 2.9249 60.5669C2.35523 60.5669 1.93369 60.3675 1.66025 59.9688C1.3982 59.5586 1.26718 59.1029 1.26718 58.6016C1.26718 58.0775 1.44947 57.5762 1.81406 57.0977C2.19003 56.6191 2.67425 56.1919 3.26669 55.8159C3.77939 55.4969 4.40032 55.2292 5.12949 55.0127C5.85865 54.7848 6.57073 54.6709 7.26572 54.6709C8.22275 54.6709 9.05445 54.7393 9.76083 54.876C10.4786 55.0013 11.128 55.2804 11.7091 55.7134C12.2901 56.1349 12.7288 56.7103 13.025 57.4395C13.3326 58.1572 13.4864 59.0858 13.4864 60.2251C13.4864 61.8543 13.4693 63.3013 13.4352 64.5659C13.401 65.8192 13.3839 67.1921 13.3839 68.6846C13.3839 69.1289 13.4579 69.4821 13.606 69.7441C13.7656 70.0062 14.0048 70.2284 14.3238 70.4106C14.4947 70.5132 14.7625 70.5701 15.127 70.5815C15.503 70.5929 15.8847 70.5986 16.2721 70.5986V71.6924ZM10.3077 62.6689C9.33928 62.9538 8.49049 63.2329 7.76132 63.5063C7.03216 63.7798 6.35426 64.1216 5.72763 64.5317C5.15797 64.9191 4.70794 65.3805 4.37753 65.916C4.04713 66.4401 3.88193 67.0667 3.88193 67.7959C3.88193 68.7415 4.12688 69.4365 4.61679 69.8809C5.11809 70.3252 5.75042 70.5474 6.51376 70.5474C7.32268 70.5474 8.03476 70.3537 8.64999 69.9663C9.26523 69.5675 9.78362 69.1004 10.2052 68.5649L10.3077 62.6689ZM32.9497 57.3198C32.9497 57.9009 32.8073 58.4193 32.5225 58.875C32.2376 59.3193 31.799 59.5415 31.2065 59.5415C30.5685 59.5415 30.0786 59.3763 29.7368 59.0459C29.4064 58.7155 29.2412 58.3509 29.2412 57.9521C29.2412 57.7015 29.2583 57.4736 29.2925 57.2686C29.338 57.0635 29.3779 56.8584 29.4121 56.6533C28.8766 56.6533 28.25 56.8698 27.5322 57.3027C26.8144 57.7357 26.2049 58.3509 25.7036 59.1484V68.958C25.7036 69.3568 25.7777 69.6815 25.9258 69.9321C26.0853 70.1828 26.3302 70.3708 26.6606 70.4961C26.9455 70.61 27.3101 70.6955 27.7544 70.7524C28.2101 70.8094 28.6032 70.8493 28.9336 70.8721V72H20.0469V70.8721C20.3089 70.8493 20.5767 70.8265 20.8501 70.8037C21.1349 70.7809 21.3799 70.7354 21.585 70.667C21.904 70.5645 22.1375 70.3879 22.2856 70.1372C22.4451 69.8752 22.5249 69.5391 22.5249 69.1289V58.7212C22.5249 58.368 22.4394 58.0205 22.2685 57.6787C22.109 57.3369 21.8812 57.0635 21.585 56.8584C21.3685 56.7217 21.1121 56.6248 20.8159 56.5679C20.5197 56.4995 20.2007 56.4539 19.8589 56.4312V55.3203L25.4643 54.9443L25.7036 55.1836V57.5591H25.7891C26.4954 56.6362 27.2816 55.9355 28.1475 55.457C29.0133 54.9785 29.8052 54.7393 30.5229 54.7393C31.2407 54.7393 31.8218 54.9728 32.2661 55.4399C32.7218 55.9071 32.9497 56.5337 32.9497 57.3198ZM51.473 68.0352C50.7667 69.3796 49.821 70.4505 48.6361 71.248C47.4512 72.0456 46.0897 72.4443 44.5517 72.4443C43.1959 72.4443 42.0053 72.2051 40.9799 71.7266C39.9659 71.248 39.1285 70.5986 38.4677 69.7783C37.8069 68.958 37.3113 68.001 36.9809 66.9072C36.6618 65.8135 36.5023 64.6571 36.5023 63.438C36.5023 62.3442 36.6732 61.2733 37.015 60.2251C37.3682 59.1655 37.8809 58.2142 38.5531 57.3711C39.2025 56.5622 40.0058 55.9128 40.9628 55.4229C41.9312 54.9215 43.0136 54.6709 44.2099 54.6709C45.4403 54.6709 46.4942 54.8646 47.3715 55.252C48.2488 55.6393 48.9608 56.1691 49.5077 56.8413C50.0318 57.4793 50.4192 58.2313 50.6698 59.0972C50.9319 59.9631 51.0629 60.903 51.0629 61.917V63.0449H39.9032C39.9032 64.1501 40.0058 65.1527 40.2108 66.0527C40.4273 66.9528 40.7634 67.7446 41.2191 68.4282C41.6635 69.089 42.2445 69.6131 42.9623 70.0005C43.6801 70.3765 44.5346 70.5645 45.5258 70.5645C46.5398 70.5645 47.4114 70.3309 48.1405 69.8638C48.8811 69.3853 49.5932 68.5308 50.2768 67.3003L51.473 68.0352ZM47.6962 61.6094C47.6962 60.9714 47.6392 60.2878 47.5253 59.5586C47.4227 58.8294 47.2519 58.2199 47.0126 57.73C46.7505 57.2059 46.3917 56.7786 45.9359 56.4482C45.4802 56.1178 44.8935 55.9526 44.1757 55.9526C42.9794 55.9526 41.9825 56.4539 41.185 57.4565C40.3988 58.4478 39.9716 59.832 39.9032 61.6094H47.6962ZM73.9592 72H65.739V70.8721C66.001 70.8493 66.2801 70.8265 66.5764 70.8037C66.8726 70.7695 67.1175 70.724 67.3112 70.667C67.6302 70.5645 67.8695 70.3879 68.029 70.1372C68.1885 69.8752 68.2683 69.5391 68.2683 69.1289V49.6123C68.2683 49.2021 68.1771 48.8205 67.9948 48.4673C67.8239 48.1027 67.5961 47.8179 67.3112 47.6128C67.1061 47.4761 66.7302 47.3507 66.1833 47.2368C65.6364 47.1229 65.1978 47.0545 64.8674 47.0317V45.938L71.2077 45.5449L71.447 45.8013V68.9238C71.447 69.3226 71.521 69.653 71.6691 69.915C71.8172 70.1657 72.0565 70.3594 72.3869 70.4961C72.6376 70.61 72.8825 70.6955 73.1218 70.7524C73.3724 70.8094 73.6516 70.8493 73.9592 70.8721V72ZM94.6017 63.4038C94.6017 64.5887 94.4137 65.7565 94.0377 66.9072C93.6617 68.0465 93.1262 69.015 92.4312 69.8125C91.6451 70.724 90.7337 71.4019 89.6969 71.8462C88.6601 72.2905 87.498 72.5127 86.2105 72.5127C85.1396 72.5127 84.1199 72.3133 83.1515 71.9146C82.183 71.5044 81.3228 70.9119 80.5709 70.1372C79.8303 69.3739 79.2379 68.4453 78.7935 67.3516C78.3606 66.2464 78.1441 65.0103 78.1441 63.6431C78.1441 61.0112 78.9075 58.8579 80.4342 57.1831C81.9723 55.5083 83.9832 54.6709 86.4669 54.6709C88.8253 54.6709 90.7678 55.4684 92.2945 57.0635C93.8326 58.6471 94.6017 60.7606 94.6017 63.4038ZM91.0641 63.438C91.0641 62.5835 90.9786 61.6834 90.8077 60.7378C90.6368 59.7808 90.3805 58.9718 90.0387 58.311C89.6741 57.6047 89.1956 57.0407 88.6031 56.6191C88.0107 56.1862 87.2872 55.9697 86.4327 55.9697C85.5554 55.9697 84.8035 56.1862 84.1768 56.6191C83.5616 57.0521 83.0603 57.6445 82.6729 58.3965C82.3084 59.0915 82.052 59.8833 81.9039 60.772C81.7558 61.6606 81.6817 62.5208 81.6817 63.3525C81.6817 64.4463 81.7672 65.4603 81.9381 66.3945C82.1204 67.3174 82.4052 68.1434 82.7926 68.8726C83.1799 69.6017 83.6642 70.1771 84.2452 70.5986C84.8377 71.0088 85.5668 71.2139 86.4327 71.2139C87.8569 71.2139 88.9848 70.5246 89.8165 69.146C90.6482 67.7674 91.0641 65.8647 91.0641 63.438ZM115.569 63.4038C115.569 64.5887 115.381 65.7565 115.005 66.9072C114.629 68.0465 114.093 69.015 113.398 69.8125C112.612 70.724 111.701 71.4019 110.664 71.8462C109.627 72.2905 108.465 72.5127 107.178 72.5127C106.107 72.5127 105.087 72.3133 104.119 71.9146C103.15 71.5044 102.29 70.9119 101.538 70.1372C100.798 69.3739 100.205 68.4453 99.7607 67.3516C99.3278 66.2464 99.1113 65.0103 99.1113 63.6431C99.1113 61.0112 99.8747 58.8579 101.401 57.1831C102.939 55.5083 104.95 54.6709 107.434 54.6709C109.792 54.6709 111.735 55.4684 113.262 57.0635C114.8 58.6471 115.569 60.7606 115.569 63.4038ZM112.031 63.438C112.031 62.5835 111.946 61.6834 111.775 60.7378C111.604 59.7808 111.348 58.9718 111.006 58.311C110.641 57.6047 110.163 57.0407 109.57 56.6191C108.978 56.1862 108.254 55.9697 107.4 55.9697C106.523 55.9697 105.771 56.1862 105.144 56.6191C104.529 57.0521 104.027 57.6445 103.64 58.3965C103.276 59.0915 103.019 59.8833 102.871 60.772C102.723 61.6606 102.649 62.5208 102.649 63.3525C102.649 64.4463 102.734 65.4603 102.905 66.3945C103.088 67.3174 103.372 68.1434 103.76 68.8726C104.147 69.6017 104.631 70.1771 105.212 70.5986C105.805 71.0088 106.534 71.2139 107.4 71.2139C108.824 71.2139 109.952 70.5246 110.784 69.146C111.615 67.7674 112.031 65.8647 112.031 63.438ZM137.972 72H132.879C131.99 70.7126 131.039 69.334 130.025 67.8643C129.011 66.3945 127.957 64.9647 126.863 63.5747L125.462 64.8906V68.8896C125.462 69.2998 125.536 69.6416 125.684 69.915C125.832 70.1771 126.071 70.3708 126.402 70.4961C126.675 70.61 126.937 70.6955 127.188 70.7524C127.439 70.8094 127.729 70.8493 128.059 70.8721V72H119.788V70.8721C120.05 70.8493 120.323 70.8265 120.608 70.8037C120.893 70.7695 121.132 70.724 121.326 70.667C121.645 70.5645 121.884 70.3879 122.044 70.1372C122.203 69.8752 122.283 69.5391 122.283 69.1289V49.5439C122.283 49.1224 122.192 48.7293 122.01 48.3647C121.839 47.9888 121.611 47.7039 121.326 47.5103C121.087 47.328 120.711 47.2083 120.198 47.1514C119.697 47.0944 119.292 47.0545 118.985 47.0317V45.938L125.223 45.5449L125.462 45.8013V63.626C126.35 62.7373 127.308 61.786 128.333 60.772C129.37 59.7466 130.241 58.8351 130.948 58.0376C131.039 57.9351 131.136 57.804 131.238 57.6445C131.352 57.4736 131.409 57.3369 131.409 57.2344C131.409 56.9268 131.158 56.6989 130.657 56.5508C130.167 56.4027 129.694 56.3001 129.239 56.2432V55.1494H136.656V56.209C135.699 56.4938 134.85 56.8527 134.109 57.2856C133.38 57.7072 132.822 58.0889 132.434 58.4307C132.161 58.6585 131.774 59.0288 131.272 59.5415C130.771 60.0542 130.07 60.7264 129.17 61.5581C130.105 62.7088 131.153 64.0874 132.315 65.6938C133.488 67.3003 134.343 68.4624 134.878 69.1802C135.38 69.8524 135.83 70.291 136.228 70.4961C136.627 70.7012 137.208 70.8265 137.972 70.8721V72ZM149.163 72H141.012V70.8721C141.274 70.8493 141.541 70.8265 141.815 70.8037C142.1 70.7809 142.345 70.7354 142.55 70.667C142.869 70.5645 143.102 70.3879 143.25 70.1372C143.41 69.8752 143.49 69.5391 143.49 69.1289V58.7212C143.49 58.3566 143.404 58.0262 143.233 57.73C143.074 57.4224 142.846 57.166 142.55 56.9609C142.333 56.8242 142.02 56.7103 141.61 56.6191C141.2 56.5166 140.824 56.4539 140.482 56.4312V55.3203L146.429 54.9443L146.668 55.1836V68.9238C146.668 69.3226 146.742 69.653 146.89 69.915C147.05 70.1771 147.295 70.3708 147.625 70.4961C147.876 70.5986 148.121 70.6841 148.36 70.7524C148.599 70.8094 148.867 70.8493 149.163 70.8721V72ZM147.01 48.2964C147.01 48.9458 146.794 49.5155 146.361 50.0054C145.939 50.4839 145.415 50.7231 144.788 50.7231C144.207 50.7231 143.7 50.4953 143.267 50.0396C142.846 49.5724 142.635 49.0426 142.635 48.4502C142.635 47.8236 142.846 47.2767 143.267 46.8096C143.7 46.3424 144.207 46.1089 144.788 46.1089C145.438 46.1089 145.968 46.3311 146.378 46.7754C146.799 47.2083 147.01 47.7153 147.01 48.2964ZM171.942 72H163.688V70.8721C163.95 70.8493 164.235 70.8265 164.542 70.8037C164.861 70.7809 165.123 70.7354 165.328 70.667C165.647 70.5645 165.881 70.3879 166.029 70.1372C166.188 69.8752 166.268 69.5391 166.268 69.1289V60.4644C166.268 59.2681 165.983 58.3452 165.414 57.6958C164.855 57.0464 164.172 56.7217 163.363 56.7217C162.759 56.7217 162.207 56.8185 161.705 57.0122C161.204 57.1945 160.76 57.4224 160.372 57.6958C159.996 57.9578 159.694 58.2427 159.466 58.5503C159.25 58.8465 159.091 59.0858 158.988 59.2681V68.958C158.988 69.3454 159.068 69.6644 159.227 69.915C159.387 70.1657 159.626 70.3594 159.945 70.4961C160.184 70.61 160.441 70.6955 160.714 70.7524C160.999 70.8094 161.289 70.8493 161.586 70.8721V72H153.331V70.8721C153.593 70.8493 153.861 70.8265 154.134 70.8037C154.419 70.7809 154.664 70.7354 154.869 70.667C155.188 70.5645 155.422 70.3879 155.57 70.1372C155.73 69.8752 155.809 69.5391 155.809 69.1289V58.7212C155.809 58.3338 155.724 57.9806 155.553 57.6616C155.393 57.3312 155.166 57.0635 154.869 56.8584C154.653 56.7217 154.397 56.6248 154.1 56.5679C153.804 56.4995 153.485 56.4539 153.143 56.4312V55.3203L158.749 54.9443L158.988 55.1836V57.5591H159.073C159.347 57.2856 159.689 56.9609 160.099 56.585C160.509 56.1976 160.896 55.8843 161.261 55.645C161.682 55.3716 162.184 55.1437 162.765 54.9614C163.346 54.7791 164.001 54.688 164.73 54.688C166.348 54.688 167.544 55.195 168.319 56.209C169.105 57.2116 169.498 58.5503 169.498 60.2251V68.9922C169.498 69.391 169.567 69.7157 169.703 69.9663C169.84 70.2056 170.074 70.3936 170.404 70.5303C170.677 70.6442 170.911 70.724 171.105 70.7695C171.31 70.8151 171.589 70.8493 171.942 70.8721V72ZM190.551 70.2568C191.007 70.6898 191.365 71.1797 191.628 71.7266C191.89 72.2734 192.021 72.9513 192.021 73.7603C192.021 74.5692 191.844 75.3268 191.491 76.0332C191.138 76.751 190.602 77.3719 189.884 77.896C189.121 78.4315 188.21 78.8473 187.15 79.1436C186.09 79.4398 184.78 79.5879 183.219 79.5879C180.667 79.5879 178.759 79.2119 177.494 78.46C176.23 77.7194 175.597 76.6313 175.597 75.1958C175.597 74.0337 176.053 73.1165 176.964 72.4443C177.876 71.7721 179.038 71.4076 180.451 71.3506V71.1113C180.109 71.0088 179.756 70.8835 179.391 70.7354C179.027 70.5758 178.713 70.3936 178.451 70.1885C178.155 69.9492 177.916 69.6701 177.733 69.3511C177.551 69.0207 177.46 68.6162 177.46 68.1377C177.46 67.5339 177.671 66.9813 178.092 66.48C178.525 65.9673 179.175 65.5286 180.041 65.1641V64.9077C178.947 64.395 178.098 63.7399 177.494 62.9424C176.89 62.1335 176.588 61.1992 176.588 60.1396C176.588 58.5446 177.181 57.2344 178.366 56.209C179.562 55.1836 181.089 54.6709 182.946 54.6709C183.459 54.6709 183.966 54.7222 184.467 54.8247C184.98 54.9272 185.498 55.0583 186.022 55.2178H191.901V56.8584H187.936V56.9609C188.358 57.4508 188.671 57.992 188.876 58.5845C189.081 59.1769 189.184 59.758 189.184 60.3276C189.184 61.8088 188.58 63.062 187.372 64.0874C186.176 65.1128 184.78 65.6255 183.185 65.6255H181.117C180.855 65.7166 180.582 65.8818 180.297 66.1211C180.012 66.3604 179.87 66.6851 179.87 67.0952C179.87 67.5168 179.989 67.8415 180.229 68.0693C180.468 68.2858 180.758 68.4339 181.1 68.5137C181.431 68.6048 181.812 68.6618 182.245 68.6846C182.69 68.7074 183.145 68.7244 183.612 68.7358C184.114 68.7472 184.797 68.7814 185.663 68.8384C186.54 68.8953 187.161 68.9295 187.526 68.9409C188.05 68.9637 188.574 69.089 189.098 69.3169C189.634 69.5448 190.118 69.8581 190.551 70.2568ZM185.937 60.2593C185.937 58.9263 185.663 57.8667 185.116 57.0806C184.581 56.283 183.823 55.8843 182.843 55.8843C182.308 55.8843 181.846 55.9982 181.459 56.2261C181.083 56.4425 180.775 56.7559 180.536 57.166C180.308 57.542 180.143 57.9977 180.041 58.5332C179.949 59.0573 179.904 59.5985 179.904 60.1567C179.904 61.4214 180.177 62.4525 180.724 63.25C181.282 64.0475 182 64.4463 182.878 64.4463C183.857 64.4463 184.609 64.0532 185.133 63.2671C185.669 62.4696 185.937 61.467 185.937 60.2593ZM189.218 74.3926C189.218 73.7546 189.07 73.2305 188.774 72.8203C188.477 72.4102 188.027 72.131 187.423 71.9829C187.104 71.9373 186.449 71.8861 185.458 71.8291C184.467 71.7721 183.316 71.7437 182.006 71.7437C180.775 71.9829 179.898 72.3817 179.374 72.9399C178.861 73.5096 178.605 74.2388 178.605 75.1274C178.605 75.5262 178.691 75.9079 178.861 76.2725C179.032 76.637 179.329 76.9731 179.75 77.2808C180.149 77.577 180.684 77.8162 181.357 77.9985C182.029 78.1922 182.849 78.2891 183.817 78.2891C185.492 78.2891 186.808 77.9644 187.765 77.3149C188.734 76.6769 189.218 75.7028 189.218 74.3926ZM219.138 47.5786C219.138 48.0913 219.001 48.5243 218.728 48.8774C218.454 49.2306 218.039 49.4072 217.48 49.4072C217.127 49.4072 216.814 49.3332 216.54 49.1851C216.278 49.0369 216.033 48.8376 215.806 48.5869C215.578 48.3363 215.367 48.0514 215.173 47.7324C214.98 47.4134 214.814 47.1571 214.678 46.9634C213.914 46.9976 213.322 47.533 212.9 48.5698C212.49 49.5952 212.285 51.2358 212.285 53.4917V55.2178H216.626V56.8584H212.285V68.958C212.285 69.3568 212.359 69.6815 212.507 69.9321C212.667 70.1828 212.912 70.3708 213.242 70.4961C213.516 70.5986 213.88 70.6841 214.336 70.7524C214.792 70.8094 215.185 70.8493 215.515 70.8721V72H206.628V70.8721C206.89 70.8493 207.158 70.8265 207.432 70.8037C207.716 70.7809 207.961 70.7354 208.166 70.667C208.485 70.5645 208.719 70.3879 208.867 70.1372C209.027 69.8752 209.106 69.5391 209.106 69.1289V56.8584H205.774V55.2178H209.106V54.1411C209.106 51.5776 209.767 49.5041 211.089 47.9204C212.422 46.3254 214.085 45.5278 216.079 45.5278C217.093 45.5278 217.856 45.7272 218.369 46.126C218.882 46.5247 219.138 47.009 219.138 47.5786ZM236.499 63.4038C236.499 64.5887 236.311 65.7565 235.935 66.9072C235.559 68.0465 235.024 69.015 234.329 69.8125C233.543 70.724 232.631 71.4019 231.595 71.8462C230.558 72.2905 229.396 72.5127 228.108 72.5127C227.037 72.5127 226.018 72.3133 225.049 71.9146C224.081 71.5044 223.221 70.9119 222.469 70.1372C221.728 69.3739 221.136 68.4453 220.691 67.3516C220.258 66.2464 220.042 65.0103 220.042 63.6431C220.042 61.0112 220.805 58.8579 222.332 57.1831C223.87 55.5083 225.881 54.6709 228.365 54.6709C230.723 54.6709 232.665 55.4684 234.192 57.0635C235.73 58.6471 236.499 60.7606 236.499 63.4038ZM232.962 63.438C232.962 62.5835 232.876 61.6834 232.705 60.7378C232.534 59.7808 232.278 58.9718 231.936 58.311C231.572 57.6047 231.093 57.0407 230.501 56.6191C229.908 56.1862 229.185 55.9697 228.33 55.9697C227.453 55.9697 226.701 56.1862 226.075 56.6191C225.459 57.0521 224.958 57.6445 224.571 58.3965C224.206 59.0915 223.95 59.8833 223.802 60.772C223.653 61.6606 223.579 62.5208 223.579 63.3525C223.579 64.4463 223.665 65.4603 223.836 66.3945C224.018 67.3174 224.303 68.1434 224.69 68.8726C225.078 69.6017 225.562 70.1771 226.143 70.5986C226.735 71.0088 227.464 71.2139 228.33 71.2139C229.755 71.2139 230.882 70.5246 231.714 69.146C232.546 67.7674 232.962 65.8647 232.962 63.438ZM253.946 57.3198C253.946 57.9009 253.804 58.4193 253.519 58.875C253.234 59.3193 252.795 59.5415 252.203 59.5415C251.565 59.5415 251.075 59.3763 250.733 59.0459C250.403 58.7155 250.237 58.3509 250.237 57.9521C250.237 57.7015 250.255 57.4736 250.289 57.2686C250.334 57.0635 250.374 56.8584 250.408 56.6533C249.873 56.6533 249.246 56.8698 248.529 57.3027C247.811 57.7357 247.201 58.3509 246.7 59.1484V68.958C246.7 69.3568 246.774 69.6815 246.922 69.9321C247.082 70.1828 247.327 70.3708 247.657 70.4961C247.942 70.61 248.306 70.6955 248.751 70.7524C249.206 70.8094 249.599 70.8493 249.93 70.8721V72H241.043V70.8721C241.305 70.8493 241.573 70.8265 241.846 70.8037C242.131 70.7809 242.376 70.7354 242.581 70.667C242.9 70.5645 243.134 70.3879 243.282 70.1372C243.441 69.8752 243.521 69.5391 243.521 69.1289V58.7212C243.521 58.368 243.436 58.0205 243.265 57.6787C243.105 57.3369 242.877 57.0635 242.581 56.8584C242.365 56.7217 242.108 56.6248 241.812 56.5679C241.516 56.4995 241.197 56.4539 240.855 56.4312V55.3203L246.461 54.9443L246.7 55.1836V57.5591H246.785C247.492 56.6362 248.278 55.9355 249.144 55.457C250.01 54.9785 250.801 54.7393 251.519 54.7393C252.237 54.7393 252.818 54.9728 253.262 55.4399C253.718 55.9071 253.946 56.5337 253.946 57.3198ZM284.003 71.6924C283.467 71.8861 282.995 72.0399 282.584 72.1538C282.186 72.2791 281.73 72.3418 281.217 72.3418C280.329 72.3418 279.617 72.1367 279.081 71.7266C278.557 71.305 278.221 70.6955 278.073 69.8979H277.97C277.23 70.7183 276.432 71.3449 275.578 71.7778C274.735 72.2108 273.715 72.4272 272.519 72.4272C271.254 72.4272 270.211 72.0399 269.391 71.2651C268.582 70.4904 268.178 69.4764 268.178 68.2231C268.178 67.5737 268.269 66.9927 268.451 66.48C268.633 65.9673 268.907 65.5059 269.271 65.0957C269.556 64.7539 269.932 64.452 270.399 64.1899C270.867 63.9165 271.305 63.7 271.715 63.5405C272.228 63.3468 273.265 62.988 274.826 62.4639C276.398 61.9398 277.458 61.5296 278.004 61.2334V59.5415C278.004 59.3934 277.97 59.1086 277.902 58.687C277.845 58.2655 277.714 57.8667 277.509 57.4907C277.281 57.0692 276.956 56.7046 276.535 56.397C276.125 56.078 275.538 55.9185 274.774 55.9185C274.25 55.9185 273.76 56.0096 273.305 56.1919C272.86 56.3628 272.547 56.5451 272.365 56.7388C272.365 56.9666 272.416 57.3027 272.519 57.7471C272.632 58.1914 272.689 58.6016 272.689 58.9775C272.689 59.3763 272.507 59.7409 272.143 60.0713C271.789 60.4017 271.294 60.5669 270.656 60.5669C270.086 60.5669 269.665 60.3675 269.391 59.9688C269.129 59.5586 268.998 59.1029 268.998 58.6016C268.998 58.0775 269.18 57.5762 269.545 57.0977C269.921 56.6191 270.405 56.1919 270.998 55.8159C271.51 55.4969 272.131 55.2292 272.86 55.0127C273.59 54.7848 274.302 54.6709 274.997 54.6709C275.954 54.6709 276.785 54.7393 277.492 54.876C278.209 55.0013 278.859 55.2804 279.44 55.7134C280.021 56.1349 280.46 56.7103 280.756 57.4395C281.063 58.1572 281.217 59.0858 281.217 60.2251C281.217 61.8543 281.2 63.3013 281.166 64.5659C281.132 65.8192 281.115 67.1921 281.115 68.6846C281.115 69.1289 281.189 69.4821 281.337 69.7441C281.496 70.0062 281.736 70.2284 282.055 70.4106C282.226 70.5132 282.493 70.5701 282.858 70.5815C283.234 70.5929 283.616 70.5986 284.003 70.5986V71.6924ZM278.039 62.6689C277.07 62.9538 276.221 63.2329 275.492 63.5063C274.763 63.7798 274.085 64.1216 273.458 64.5317C272.889 64.9191 272.439 65.3805 272.108 65.916C271.778 66.4401 271.613 67.0667 271.613 67.7959C271.613 68.7415 271.858 69.4365 272.348 69.8809C272.849 70.3252 273.481 70.5474 274.245 70.5474C275.054 70.5474 275.766 70.3537 276.381 69.9663C276.996 69.5675 277.514 69.1004 277.936 68.5649L278.039 62.6689ZM316.623 72H308.352V70.8721C308.614 70.8493 308.904 70.8265 309.223 70.8037C309.542 70.7809 309.804 70.7354 310.01 70.667C310.329 70.5645 310.562 70.3879 310.71 70.1372C310.87 69.8752 310.949 69.5391 310.949 69.1289V60.4644C310.949 59.2681 310.665 58.3452 310.095 57.6958C309.537 57.0464 308.853 56.7217 308.044 56.7217C307.452 56.7217 306.899 56.8185 306.387 57.0122C305.885 57.1945 305.435 57.4224 305.036 57.6958C304.649 57.9806 304.353 58.2655 304.148 58.5503C303.943 58.8351 303.783 59.0744 303.669 59.2681V68.958C303.669 69.3454 303.743 69.6644 303.891 69.915C304.051 70.1657 304.29 70.3594 304.609 70.4961C304.86 70.61 305.116 70.6955 305.378 70.7524C305.652 70.8094 305.948 70.8493 306.267 70.8721V72H297.995V70.8721C298.257 70.8493 298.531 70.8265 298.816 70.8037C299.101 70.7695 299.34 70.724 299.533 70.667C299.852 70.5645 300.092 70.3879 300.251 70.1372C300.411 69.8752 300.491 69.5391 300.491 69.1289V49.5098C300.491 49.1224 300.399 48.735 300.217 48.3477C300.046 47.9603 299.818 47.6698 299.533 47.4761C299.328 47.328 298.964 47.2254 298.44 47.1685C297.927 47.1001 297.511 47.0545 297.192 47.0317V45.938L303.43 45.5449L303.669 45.8013V57.5591H303.738C304.114 57.1831 304.455 56.8527 304.763 56.5679C305.071 56.2716 305.475 55.964 305.976 55.645C306.409 55.3716 306.916 55.1437 307.497 54.9614C308.09 54.7791 308.751 54.688 309.48 54.688C310.984 54.688 312.14 55.1665 312.949 56.1235C313.758 57.0692 314.162 58.4364 314.162 60.2251V68.9922C314.162 69.391 314.231 69.7157 314.367 69.9663C314.516 70.2056 314.755 70.3936 315.085 70.5303C315.347 70.6328 315.581 70.7126 315.786 70.7695C316.002 70.8151 316.282 70.8493 316.623 70.8721V72ZM337.215 63.4038C337.215 64.5887 337.027 65.7565 336.651 66.9072C336.275 68.0465 335.739 69.015 335.044 69.8125C334.258 70.724 333.347 71.4019 332.31 71.8462C331.273 72.2905 330.111 72.5127 328.823 72.5127C327.752 72.5127 326.733 72.3133 325.764 71.9146C324.796 71.5044 323.936 70.9119 323.184 70.1372C322.443 69.3739 321.851 68.4453 321.406 67.3516C320.973 66.2464 320.757 65.0103 320.757 63.6431C320.757 61.0112 321.52 58.8579 323.047 57.1831C324.585 55.5083 326.596 54.6709 329.08 54.6709C331.438 54.6709 333.381 55.4684 334.907 57.0635C336.445 58.6471 337.215 60.7606 337.215 63.4038ZM333.677 63.438C333.677 62.5835 333.591 61.6834 333.421 60.7378C333.25 59.7808 332.993 58.9718 332.652 58.311C332.287 57.6047 331.808 57.0407 331.216 56.6191C330.624 56.1862 329.9 55.9697 329.046 55.9697C328.168 55.9697 327.416 56.1862 326.79 56.6191C326.174 57.0521 325.673 57.6445 325.286 58.3965C324.921 59.0915 324.665 59.8833 324.517 60.772C324.369 61.6606 324.295 62.5208 324.295 63.3525C324.295 64.4463 324.38 65.4603 324.551 66.3945C324.733 67.3174 325.018 68.1434 325.405 68.8726C325.793 69.6017 326.277 70.1771 326.858 70.5986C327.451 71.0088 328.18 71.2139 329.046 71.2139C330.47 71.2139 331.598 70.5246 332.429 69.146C333.261 67.7674 333.677 65.8647 333.677 63.438ZM359.822 71.6924L354.337 72.0684L354.08 71.8291V69.6929H353.978C353.704 69.9777 353.397 70.2853 353.055 70.6157C352.713 70.9347 352.32 71.2253 351.876 71.4873C351.363 71.7949 350.867 72.0285 350.389 72.188C349.91 72.3475 349.232 72.4272 348.355 72.4272C346.863 72.4272 345.723 71.943 344.937 70.9746C344.162 69.9948 343.775 68.5763 343.775 66.7192V58.6528C343.775 58.2427 343.695 57.9009 343.536 57.6274C343.388 57.3426 343.165 57.0977 342.869 56.8926C342.664 56.7559 342.408 56.659 342.1 56.6021C341.793 56.5337 341.468 56.4881 341.126 56.4653V55.3545L346.749 54.9443L347.005 55.1836V66.8901C347.005 68.1092 347.278 69.0264 347.825 69.6416C348.372 70.2568 349.027 70.5645 349.791 70.5645C350.417 70.5645 350.976 70.4676 351.465 70.2739C351.955 70.0802 352.365 69.8524 352.696 69.5903C353.004 69.3511 353.271 69.1004 353.499 68.8384C353.738 68.5649 353.921 68.3143 354.046 68.0864V58.5332C354.046 58.1572 353.966 57.8268 353.807 57.542C353.647 57.2458 353.425 56.9951 353.14 56.79C352.935 56.6533 352.628 56.5736 352.217 56.5508C351.819 56.5166 351.369 56.4881 350.867 56.4653V55.3545L356.985 54.9443L357.242 55.1836V68.5649C357.242 68.9523 357.322 69.2827 357.481 69.5562C357.641 69.8296 357.863 70.0632 358.148 70.2568C358.353 70.3822 358.598 70.4676 358.882 70.5132C359.167 70.5474 359.481 70.5701 359.822 70.5815V71.6924ZM375.116 63.7456C375.583 64.1558 375.942 64.6286 376.192 65.1641C376.443 65.6995 376.568 66.3547 376.568 67.1294C376.568 68.6903 375.982 69.9663 374.808 70.9575C373.646 71.9487 372.136 72.4443 370.279 72.4443C369.299 72.4443 368.394 72.2677 367.562 71.9146C366.742 71.5614 366.155 71.2367 365.802 70.9404L365.46 72.0513H364.178L364.007 66.1895H365.187C365.278 66.6338 365.471 67.1522 365.768 67.7446C366.064 68.3371 366.423 68.8726 366.844 69.3511C367.289 69.8524 367.818 70.2739 368.434 70.6157C369.06 70.9575 369.761 71.1284 370.536 71.1284C371.629 71.1284 372.472 70.8835 373.065 70.3936C373.657 69.8923 373.954 69.1802 373.954 68.2573C373.954 67.7788 373.857 67.3687 373.663 67.0269C373.481 66.6737 373.207 66.366 372.843 66.104C372.467 65.842 372.005 65.6084 371.458 65.4033C370.912 65.1868 370.302 64.9761 369.63 64.771C369.094 64.6115 368.496 64.395 367.835 64.1216C367.186 63.8368 366.628 63.5063 366.161 63.1304C365.659 62.7316 365.249 62.2417 364.93 61.6606C364.611 61.0796 364.452 60.396 364.452 59.6099C364.452 58.2313 364.964 57.0635 365.99 56.1064C367.015 55.1494 368.388 54.6709 370.108 54.6709C370.769 54.6709 371.441 54.7563 372.125 54.9272C372.82 55.0981 373.384 55.3032 373.817 55.5425L374.21 54.6538H375.44L375.697 60.0713H374.518C374.278 58.8636 373.76 57.8838 372.962 57.1318C372.176 56.3685 371.214 55.9868 370.074 55.9868C369.14 55.9868 368.405 56.2204 367.87 56.6875C367.334 57.1546 367.066 57.7186 367.066 58.3794C367.066 58.8921 367.152 59.3193 367.323 59.6611C367.505 60.0029 367.773 60.2935 368.126 60.5327C368.468 60.7606 368.895 60.9771 369.408 61.1821C369.932 61.3758 370.576 61.598 371.339 61.8486C372.091 62.0879 372.797 62.367 373.458 62.686C374.13 63.005 374.683 63.3582 375.116 63.7456ZM396.203 68.0352C395.496 69.3796 394.551 70.4505 393.366 71.248C392.181 72.0456 390.819 72.4443 389.281 72.4443C387.925 72.4443 386.735 72.2051 385.709 71.7266C384.695 71.248 383.858 70.5986 383.197 69.7783C382.536 68.958 382.041 68.001 381.71 66.9072C381.391 65.8135 381.232 64.6571 381.232 63.438C381.232 62.3442 381.403 61.2733 381.745 60.2251C382.098 59.1655 382.61 58.2142 383.283 57.3711C383.932 56.5622 384.735 55.9128 385.692 55.4229C386.661 54.9215 387.743 54.6709 388.939 54.6709C390.17 54.6709 391.224 54.8646 392.101 55.252C392.978 55.6393 393.69 56.1691 394.237 56.8413C394.761 57.4793 395.149 58.2313 395.399 59.0972C395.661 59.9631 395.792 60.903 395.792 61.917V63.0449H384.633C384.633 64.1501 384.735 65.1527 384.94 66.0527C385.157 66.9528 385.493 67.7446 385.949 68.4282C386.393 69.089 386.974 69.6131 387.692 70.0005C388.41 70.3765 389.264 70.5645 390.255 70.5645C391.269 70.5645 392.141 70.3309 392.87 69.8638C393.611 69.3853 394.323 68.5308 395.006 67.3003L396.203 68.0352ZM392.426 61.6094C392.426 60.9714 392.369 60.2878 392.255 59.5586C392.152 58.8294 391.981 58.2199 391.742 57.73C391.48 57.2059 391.121 56.7786 390.665 56.4482C390.21 56.1178 389.623 55.9526 388.905 55.9526C387.709 55.9526 386.712 56.4539 385.914 57.4565C385.128 58.4478 384.701 59.832 384.633 61.6094H392.426Z" fill="#545454"/>
</svg>
